<?xml version="1.0" encoding="UTF-8"?>
<svg version="1.1" xmlns="http://www.w3.org/2000/svg" width="220" height="166">
<path d="M0 0 C-1.28661822 4.36806887 -2.96569526 7.78788934 -5.5 11.5625 C-7.78979604 14.98264027 -9.5202709 18.16673624 -11 22 C-11.99 23.485 -11.99 23.485 -13 25 C-12.05125 24.175 -11.1025 23.35 -10.125 22.5 C-7.25 20 -7.25 20 -5 20 C-6.32819249 24.7224622 -9.1686958 27.63557098 -12.44140625 31.1328125 C-14.20955146 33.02004569 -14.20955146 33.02004569 -15 36 C-14.34 36.66 -13.68 37.32 -13 38 C-17.00808771 43.30101923 -21.66268841 47.06969212 -27 51 C-25.35 50.67 -23.7 50.34 -22 50 C-23.40717816 53.36847828 -24.97758085 55.01943368 -27.9375 57.125 C-28.62714844 57.62257812 -29.31679687 58.12015625 -30.02734375 58.6328125 C-31.6726313 59.7731108 -33.33439173 60.88959449 -35 62 C-33.02 62.495 -33.02 62.495 -31 63 C-36.57398967 68.73793055 -43.54873397 70.60130477 -51 73 C-50.49175613 77.09367333 -48.48988996 78.68884268 -45.4375 81.3125 C-44.53257813 82.10011719 -43.62765625 82.88773437 -42.6953125 83.69921875 C-41.80585937 84.45847656 -40.91640625 85.21773438 -40 86 C-35.35448066 90.00903359 -30.87816598 94.06970988 -26.58203125 98.453125 C-24.91456491 100.14264222 -24.91456491 100.14264222 -22.5 101.9375 C-19.66102373 104.27965542 -17.41316829 106.85931064 -15.02734375 109.65234375 C-12.69216131 112.35647602 -10.28778658 114.98993591 -7.875 117.625 C-4.48220812 121.34362403 -1.17001164 125.09031898 2 129 C2.99 128.34 3.98 127.68 5 127 C7.9375 126.625 7.9375 126.625 11 127 C13.375 129 13.375 129 15 131 C14.67 131.66 14.34 132.32 14 133 C11.69 132.67 9.38 132.34 7 132 C8.91973156 134.12440008 8.91973156 134.12440008 11.5625 135.3125 C14 137 14 137 14.9375 139.5 C15 142 15 142 13 145 C7.02142857 146.55 7.02142857 146.55 3.5625 144.6875 C2 143 2 143 2 141 C1.34 140.67 0.68 140.34 0 140 C3.34252724 139.92572162 5.8035914 139.93453047 9 141 C9.33 140.34 9.66 139.68 10 139 C9.2575 138.9175 8.515 138.835 7.75 138.75 C3.35039426 137.55010753 1.59250345 134.95803453 -0.75390625 131.1640625 C-9.85251866 118.34688676 -27.03712496 110.85937099 -42 108 C-46.30653417 107.516005 -50.61046915 107.28167129 -54.9375 107.0625 C-72.01127035 105.94836414 -86.939522 102.02636043 -99 89 C-103.74208859 82.82612137 -106.38634198 75.85134499 -108.82080078 68.53344727 C-110.22683989 64.45173672 -111.56783271 61.67526348 -115 59 C-118.63543901 57.72234735 -118.63543901 57.72234735 -122 57 C-121.67 56.01 -121.34 55.02 -121 54 C-120.319375 53.731875 -119.63875 53.46375 -118.9375 53.1875 C-116.09297266 52.03758469 -114.52139766 50.86710043 -112.1875 48.9375 C-108.1977557 45.88343682 -105.04631366 44.60343311 -100 45 C-92.6712807 46.80214409 -86.67456562 51.08691101 -81 56 C-81 56.66 -81 57.32 -81 58 C-86.56325096 58.3406072 -89.94860759 57.20424396 -95 55 C-98.29285101 54.74730583 -98.29285101 54.74730583 -101 55 C-101.33 55.99 -101.66 56.98 -102 58 C-101.08154405 59.63281057 -100.15005582 61.25958141 -99.15625 62.84765625 C-97.82986423 65.31670544 -97.11624617 67.75462505 -96.3125 70.4375 C-93.60953045 78.15421308 -87.95962457 82.66348823 -80.8125 86.3125 C-79.54557891 86.883757 -78.27488635 87.44674743 -77 88 C-75 89 -73 90 -71 91 C-74 93 -74 93 -76.48046875 92.5390625 C-77.37378906 92.23742187 -78.26710937 91.93578125 -79.1875 91.625 C-80.08855469 91.32851562 -80.98960938 91.03203125 -81.91796875 90.7265625 C-82.60503906 90.48679687 -83.29210937 90.24703125 -84 90 C-82.9275 90.474375 -81.855 90.94875 -80.75 91.4375 C-80.14671875 91.70433594 -79.5434375 91.97117187 -78.921875 92.24609375 C-75.40931774 93.62398715 -72.0417475 94.15477371 -68.2890625 94.4296875 C-66.92515381 94.53724365 -66.92515381 94.53724365 -65.53369141 94.64697266 C-64.57382324 94.72222168 -63.61395508 94.7974707 -62.625 94.875 C-53.8681799 95.60557558 -45.52706435 96.81730435 -37 99 C-49.44835066 90.58090138 -62.30851875 83.61559312 -75.85400391 77.16577148 C-76.48763855 76.8595285 -77.12127319 76.55328552 -77.77410889 76.23776245 C-79.50543261 75.40162775 -81.24252493 74.57746768 -82.97998047 73.75415039 C-86.2399905 71.86060374 -88.5305209 69.83935576 -91 67 C-91 66.34 -91 65.68 -91 65 C-88.98177083 64.609375 -86.96354167 64.21875 -84.9453125 63.828125 C-82.33403477 62.71649673 -82.05679107 61.59187119 -81 59 C-80.14939449 57.38276595 -79.27239444 55.77924712 -78.375 54.1875 C-77.70597656 52.97126953 -77.70597656 52.97126953 -77.0234375 51.73046875 C-70.18295386 42.49977751 -60.40928823 38.41676967 -50.3125 33.625 C-36.72940745 27.16656818 -24.40179088 20.2077646 -13 10.25 C-12.48050781 9.80785156 -11.96101563 9.36570312 -11.42578125 8.91015625 C-8.91709218 6.75533768 -6.55661756 4.54402147 -4.25 2.171875 C-2 0 -2 0 0 0 Z " fill="#7DB1D4" transform="translate(169,0)"/>
<path d="M0 0 C4.8044072 0.02061977 4.8044072 0.02061977 7.8125 2.3125 C8.26625 2.9725 8.72 3.6325 9.1875 4.3125 C9.8475 2.9925 10.5075 1.6725 11.1875 0.3125 C12.156875 0.498125 13.12625 0.68375 14.125 0.875 C15.135625 1.019375 16.14625 1.16375 17.1875 1.3125 C17.5175 0.9825 17.8475 0.6525 18.1875 0.3125 C22.41240676 -0.13312911 26.03205052 -0.36386067 29.75 1.8125 C30.224375 2.3075 30.69875 2.8025 31.1875 3.3125 C31.8475 2.9825 32.5075 2.6525 33.1875 2.3125 C33.1875 6.9325 33.1875 11.5525 33.1875 16.3125 C32.1975 15.6525 31.2075 14.9925 30.1875 14.3125 C30.8475 15.6325 31.5075 16.9525 32.1875 18.3125 C30.375 19 30.375 19 28.1875 19.3125 C26.625 18.0625 26.625 18.0625 25.1875 16.3125 C24.630625 15.755625 24.07375 15.19875 23.5 14.625 C23.066875 14.191875 22.63375 13.75875 22.1875 13.3125 C24.1875 15.3125 24.1875 15.3125 24.1875 18.3125 C21.875 18.9375 21.875 18.9375 19.1875 19.3125 C18.1975 18.6525 17.2075 17.9925 16.1875 17.3125 C15.8575 17.9725 15.5275 18.6325 15.1875 19.3125 C13.8675 18.9825 12.5475 18.6525 11.1875 18.3125 C11.1875 17.3225 11.1875 16.3325 11.1875 15.3125 C10.1975 15.3125 9.2075 15.3125 8.1875 15.3125 C7.8575 16.3025 7.5275 17.2925 7.1875 18.3125 C3.23090734 19.63136422 0.36410573 19.57768132 -3.8125 19.3125 C-6.25179003 15.65356495 -6.07539673 12.90971667 -6 8.6875 C-5.99935547 7.99398437 -5.99871094 7.30046875 -5.99804688 6.5859375 C-5.94697875 0.77551943 -5.76554091 0.1603884 0 0 Z M-0.8125 5.3125 C-0.8125 5.9725 -0.8125 6.6325 -0.8125 7.3125 C0.8375 6.9825 2.4875 6.6525 4.1875 6.3125 C1.71905755 5.5986014 1.71905755 5.5986014 -0.8125 5.3125 Z M25.1875 5.3125 C25.8475 5.9725 26.5075 6.6325 27.1875 7.3125 C27.1875 6.6525 27.1875 5.9925 27.1875 5.3125 C26.5275 5.3125 25.8675 5.3125 25.1875 5.3125 Z M8.1875 10.3125 C9.1875 12.3125 9.1875 12.3125 9.1875 12.3125 Z M-0.8125 12.3125 C-0.8125 13.3025 -0.8125 14.2925 -0.8125 15.3125 C0.8375 14.9825 2.4875 14.6525 4.1875 14.3125 C4.1875 13.6525 4.1875 12.9925 4.1875 12.3125 C3.5275 12.3125 2.8675 12.3125 2.1875 12.3125 C2.1875 12.9725 2.1875 13.6325 2.1875 14.3125 C1.5275 14.3125 0.8675 14.3125 0.1875 14.3125 C-0.1425 13.6525 -0.4725 12.9925 -0.8125 12.3125 Z " fill="#84B0CC" transform="translate(118.8125,126.6875)"/>
<path d="M0 0 C5.03014605 4.05987841 9.30763921 8.41087625 13.4375 13.375 C13.97826172 14.01566406 14.51902344 14.65632813 15.07617188 15.31640625 C16.38914141 16.87337897 17.69530848 18.43608405 19 20 C19.99 19.34 20.98 18.68 22 18 C24.9375 17.625 24.9375 17.625 28 18 C30.375 20 30.375 20 32 22 C31.67 22.66 31.34 23.32 31 24 C28.69 23.67 26.38 23.34 24 23 C25.91973156 25.12440008 25.91973156 25.12440008 28.5625 26.3125 C31 28 31 28 31.9375 30.5 C32 33 32 33 30 36 C24.02142857 37.55 24.02142857 37.55 20.5625 35.6875 C19 34 19 34 19 32 C18.34 31.67 17.68 31.34 17 31 C20.34252724 30.92572162 22.8035914 30.93453047 26 32 C26.33 31.34 26.66 30.68 27 30 C26.2575 29.9175 25.515 29.835 24.75 29.75 C20.36056905 28.55288247 18.5984408 25.98422381 16.28515625 22.1796875 C13.71197722 18.59922984 11.02980731 16.37781347 7.5 13.8125 C6.93152344 13.38775391 6.36304688 12.96300781 5.77734375 12.52539062 C4.19098048 11.34205933 2.59576079 10.17062755 1 9 C-0.33437238 8.0013869 -1.66823509 7.00208782 -3 6 C-2.34 5.34 -1.68 4.68 -1 4 C-0.34 4 0.32 4 1 4 C1 4.66 1 5.32 1 6 C1.66 6 2.32 6 3 6 C2.2575 5.071875 2.2575 5.071875 1.5 4.125 C0 2 0 2 0 0 Z " fill="#81AECC" transform="translate(152,109)"/>
<path d="M0 0 C9.24 0 18.48 0 28 0 C28 1.32 28 2.64 28 4 C26.68 4 25.36 4 24 4 C24 8.62 24 13.24 24 18 C22.68 18.33 21.36 18.66 20 19 C19 18 19 18 18.90234375 14.83984375 C18.91394531 13.55207031 18.92554687 12.26429688 18.9375 10.9375 C18.94652344 9.64714844 18.95554687 8.35679687 18.96484375 7.02734375 C18.97644531 6.02832031 18.98804687 5.02929688 19 4 C15.7 4 12.4 4 9 4 C9 8.95 9 13.9 9 19 C7.68 18.67 6.36 18.34 5 18 C4.67 13.71 4.34 9.42 4 5 C2.68 4.67 1.36 4.34 0 4 C0 2.68 0 1.36 0 0 Z " fill="#81ACC9" transform="translate(52,127)"/>
<path d="M0 0 C1.43862187 -0.03558429 2.87749862 -0.06096148 4.31640625 -0.08203125 C5.11763916 -0.0972583 5.91887207 -0.11248535 6.74438477 -0.12817383 C9.8427982 0.04789144 11.61981064 1.05257234 14 3 C16.50031654 6.75047482 16.53603554 8.55856266 16 13 C13.88215928 16.24735577 12.29868108 17.71051072 8.4765625 18.5625 C5.9574001 18.85122921 3.53506044 19.06572379 1 19 C0 18 0 18 -0.11352539 16.23413086 C-0.10828857 15.48526611 -0.10305176 14.73640137 -0.09765625 13.96484375 C-0.09443359 13.15595703 -0.09121094 12.34707031 -0.08789062 11.51367188 C-0.07951172 10.66353516 -0.07113281 9.81339844 -0.0625 8.9375 C-0.05798828 8.08349609 -0.05347656 7.22949219 -0.04882812 6.34960938 C-0.03700373 4.23304337 -0.01906769 2.11651315 0 0 Z M5 4 C4.00447501 7.09718886 4.10078757 8.90271275 5 12 C5 12.99 5 13.98 5 15 C8.24983135 13.91215032 8.24983135 13.91215032 11 12 C11.33340471 9.04195427 11.33340471 9.04195427 11 6 C8.18490007 3.7226499 8.18490007 3.7226499 5 4 Z " fill="#81AFCD" transform="translate(153,127)"/>
<path d="M0 0 C3.63 0 7.26 0 11 0 C10.814375 1.03125 10.62875 2.0625 10.4375 3.125 C10.02692918 6.76148442 10.221691 9.45437009 11 13 C10.01 13.33 9.02 13.66 8 14 C8.99 14.33 9.98 14.66 11 15 C10.67 16.32 10.34 17.64 10 19 C8.52093108 19.02689216 7.04172517 19.04634621 5.5625 19.0625 C4.32693359 19.07990234 4.32693359 19.07990234 3.06640625 19.09765625 C1 19 1 19 0 18 C-0.08631874 16.65732587 -0.10706473 15.31025678 -0.09765625 13.96484375 C-0.09443359 13.15595703 -0.09121094 12.34707031 -0.08789062 11.51367188 C-0.07951172 10.66353516 -0.07113281 9.81339844 -0.0625 8.9375 C-0.05798828 8.08349609 -0.05347656 7.22949219 -0.04882812 6.34960938 C-0.03700373 4.23304337 -0.01906769 2.11651315 0 0 Z " fill="#77AACF" transform="translate(94,127)"/>
<path d="M0 0 C0.33 0.66 0.66 1.32 1 2 C3.64 1.67 6.28 1.34 9 1 C11.29013653 4.4352048 11.17842973 5.985331 11 10 C7.09971775 12.60018816 3.52565431 12.15085514 -1 12 C-2.125 10.3125 -2.125 10.3125 -3 8 C-2.1875 5.4375 -2.1875 5.4375 -1 3 C-0.67 2.01 -0.34 1.02 0 0 Z M2 5 C2 5.99 2 6.98 2 8 C3.65 7.67 5.3 7.34 7 7 C7 6.34 7 5.68 7 5 C6.34 5 5.68 5 5 5 C5 5.66 5 6.32 5 7 C4.34 7 3.68 7 3 7 C2.67 6.34 2.34 5.68 2 5 Z " fill="#82B4D6" transform="translate(116,134)"/>
<path d="M0 0 C1.65 0 3.3 0 5 0 C5 4.95 5 9.9 5 15 C6.65 15 8.3 15 10 15 C10 16.32 10 17.64 10 19 C8.52093108 19.02689216 7.04172517 19.04634621 5.5625 19.0625 C4.32693359 19.07990234 4.32693359 19.07990234 3.06640625 19.09765625 C1 19 1 19 0 18 C-0.08631874 16.65732587 -0.10706473 15.31025678 -0.09765625 13.96484375 C-0.09443359 13.15595703 -0.09121094 12.34707031 -0.08789062 11.51367188 C-0.07951172 10.66353516 -0.07113281 9.81339844 -0.0625 8.9375 C-0.05798828 8.08349609 -0.05347656 7.22949219 -0.04882812 6.34960938 C-0.03700373 4.23304337 -0.01906769 2.11651315 0 0 Z " fill="#7DADCA" transform="translate(82,127)"/>
<path d="M0 0 C1.32 0 2.64 0 4 0 C4 4.95 4 9.9 4 15 C5.98 15 7.96 15 10 15 C10 15.99 10 16.98 10 18 C5.93720525 18.85035239 3.02659396 18.92604802 -1 18 C-1.02684312 15.18743719 -1.04676188 12.37512759 -1.0625 9.5625 C-1.07087891 8.76005859 -1.07925781 7.95761719 -1.08789062 7.13085938 C-1.0965143 5.08704779 -1.0522815 3.04316098 -1 1 C-0.67 0.67 -0.34 0.34 0 0 Z " fill="#79AECE" transform="translate(35,127)"/>
<path d="M0 0 C1.65 0 3.3 0 5 0 C5 5.94 5 11.88 5 18 C3.68 18.33 2.36 18.66 1 19 C0 18 0 18 -0.11352539 16.23413086 C-0.10828857 15.48526611 -0.10305176 14.73640137 -0.09765625 13.96484375 C-0.09443359 13.15595703 -0.09121094 12.34707031 -0.08789062 11.51367188 C-0.07951172 10.66353516 -0.07113281 9.81339844 -0.0625 8.9375 C-0.05798828 8.08349609 -0.05347656 7.22949219 -0.04882812 6.34960938 C-0.03700373 4.23304337 -0.01906769 2.11651315 0 0 Z " fill="#81AFCC" transform="translate(46,127)"/>
<path d="M0 0 C2.23580345 1.73739829 4.41319382 3.51464027 6.55078125 5.37109375 C6.22078125 6.03109375 5.89078125 6.69109375 5.55078125 7.37109375 C3.20765995 7.11548052 0.87234722 6.77838603 -1.44921875 6.37109375 C-1.77921875 5.71109375 -2.10921875 5.05109375 -2.44921875 4.37109375 C-4.54263393 3.94206795 -4.54263393 3.94206795 -6.94921875 3.80859375 C-11.35316386 3.46714864 -11.35316386 3.46714864 -12.44921875 2.37109375 C-13.10921875 2.04109375 -13.76921875 1.71109375 -14.44921875 1.37109375 C-14.44921875 0.38109375 -14.44921875 -0.60890625 -14.44921875 -1.62890625 C-9.15367135 -3.07314645 -4.69206698 -3.1205613 0 0 Z " fill="#7CB4D8" transform="translate(77.44921875,49.62890625)"/>
<path d="M0 0 C8.19256018 -0.4726477 8.19256018 -0.4726477 11.5625 1.5 C12.036875 1.995 12.51125 2.49 13 3 C13.66 2.67 14.32 2.34 15 2 C15 6.62 15 11.24 15 16 C13.68 14.68 12.36 13.36 11 12 C11.25 9.25 11.25 9.25 12 7 C11.34 7 10.68 7 10 7 C9.67 7.99 9.34 8.98 9 10 C8.67 9.01 8.34 8.02 8 7 C8.33 6.34 8.66 5.68 9 5 C8.34 4.67 7.68 4.34 7 4 C7 3.67 7 3.34 7 3 C4.03 2.505 4.03 2.505 1 2 C0.67 2.99 0.34 3.98 0 5 C0 3.35 0 1.7 0 0 Z " fill="#81ABC8" transform="translate(137,127)"/>
<path d="M0 0 C6 3 6 3 8 5 C8.99 4.67 9.98 4.34 11 4 C11.33 4.99 11.66 5.98 12 7 C13.32 6.67 14.64 6.34 16 6 C16 6.66 16 7.32 16 8 C15.38125 8.04125 14.7625 8.0825 14.125 8.125 C13.42375 8.41375 12.7225 8.7025 12 9 C10.6954344 11.99615946 10.6954344 11.99615946 10 15 C8.68 15 7.36 15 6 15 C6.20625 14.21625 6.4125 13.4325 6.625 12.625 C6.810625 11.325625 6.810625 11.325625 7 10 C4.8614515 7.8614515 3.86724686 7.57344937 1 7 C0.67 4.69 0.34 2.38 0 0 Z " fill="#7EB4DA" transform="translate(67,77)"/>
<path d="M0 0 C0.66 0 1.32 0 2 0 C0.67180751 4.7224622 -2.1686958 7.63557098 -5.44140625 11.1328125 C-7.20955146 13.02004569 -7.20955146 13.02004569 -8 16 C-8.66 15.01 -9.32 14.02 -10 13 C-13.06556598 12.26656572 -13.06556598 12.26656572 -16 12 C-11.87977917 8.56648264 -7.51801894 5.5338977 -3.109375 2.48828125 C-1.11164876 1.16835606 -1.11164876 1.16835606 0 0 Z " fill="#83B4CC" transform="translate(162,20)"/>
<path d="M0 0 C0.99 0.33 1.98 0.66 3 1 C3 2.65 3 4.3 3 6 C3.66 6.33 4.32 6.66 5 7 C5.625 9.5625 5.625 9.5625 6 12 C5.34 12 4.68 12 4 12 C4.66 13.65 5.32 15.3 6 17 C4.34385343 17.38218767 2.67542976 17.71395102 1 18 C0 17 0 17 -0.09765625 13.18359375 C-0.09098089 11.60153318 -0.07901875 10.01948841 -0.0625 8.4375 C-0.05798828 7.63119141 -0.05347656 6.82488281 -0.04882812 5.99414062 C-0.03700518 3.99606244 -0.01906914 1.99802217 0 0 Z " fill="#88B6D7" transform="translate(153,128)"/>
<path d="M0 0 C0.64130859 0.27392578 1.28261719 0.54785156 1.94335938 0.83007812 C6.67570455 2.91390911 6.67570455 2.91390911 7.8125 5.1875 C5.5 5.8125 5.5 5.8125 2.8125 6.1875 C1.8225 5.5275 0.8325 4.8675 -0.1875 4.1875 C-2.36171605 3.55602423 -2.36171605 3.55602423 -4.6875 3.125 C-7.28832768 2.60049975 -9.66139425 2.02953525 -12.1875 1.1875 C-11.1875 -1.8125 -11.1875 -1.8125 -9.57421875 -2.67578125 C-6.00386367 -2.88030241 -3.18174763 -1.44269621 0 0 Z " fill="#78A8C8" transform="translate(90.1875,86.8125)"/>
<path d="M0 0 C1.65 0.99 3.3 1.98 5 3 C4.01 3.33 3.02 3.66 2 4 C2.33 4.66 2.66 5.32 3 6 C2.01 6.99 1.02 7.98 0 9 C0.969375 9.268125 1.93875 9.53625 2.9375 9.8125 C3.948125 10.204375 4.95875 10.59625 6 11 C6.33 11.99 6.66 12.98 7 14 C3.37723685 12.6744419 0.36494652 11.05653045 -2.8125 8.875 C-3.60269531 8.33617188 -4.39289063 7.79734375 -5.20703125 7.2421875 C-5.79871094 6.83226563 -6.39039062 6.42234375 -7 6 C-6.401875 5.71125 -5.80375 5.4225 -5.1875 5.125 C-2.80672208 3.95257974 -2.80672208 3.95257974 0 2 C0 1.34 0 0.68 0 0 Z " fill="#84AEC9" transform="translate(127,85)"/>
<path d="M0 0 C1.32 0 2.64 0 4 0 C4 4.62 4 9.24 4 14 C3.67 14 3.34 14 3 14 C3 10.04 3 6.08 3 2 C2.34 2 1.68 2 1 2 C1 7.61 1 13.22 1 19 C0.34 18.67 -0.32 18.34 -1 18 C-1.02684312 15.18743719 -1.04676188 12.37512759 -1.0625 9.5625 C-1.07087891 8.76005859 -1.07925781 7.95761719 -1.08789062 7.13085938 C-1.0965143 5.08704779 -1.0522815 3.04316098 -1 1 C-0.67 0.67 -0.34 0.34 0 0 Z " fill="#82A9C2" transform="translate(35,127)"/>
<path d="M0 0 C0 0.66 0 1.32 0 2 C2.97 1.34 5.94 0.68 9 0 C5.57611908 3.82669043 2.99275057 5.72278474 -2 7 C-2 6.01 -2 5.02 -2 4 C-3.65 4 -5.3 4 -7 4 C-6.67 3.01 -6.34 2.02 -6 1 C-4 0 -4 0 0 0 Z " fill="#78A9C5" transform="translate(129,62)"/>
<path d="M0 0 C0.66 0 1.32 0 2 0 C0.25 5.75 0.25 5.75 -2 8 C-2.33 7.34 -2.66 6.68 -3 6 C-3.598125 6.804375 -4.19625 7.60875 -4.8125 8.4375 C-7 11 -7 11 -10 12 C-10 12.99 -10 13.98 -10 15 C-12.31 15.33 -14.62 15.66 -17 16 C-12.92118485 11.78522435 -8.58309472 7.89196605 -4.20703125 3.98828125 C-2.7713649 2.69491104 -1.3663719 1.3663719 0 0 Z " fill="#83ABC4" transform="translate(167,0)"/>
<path d="M0 0 C0.99 0 1.98 0 3 0 C3.144375 1.11375 3.28875 2.2275 3.4375 3.375 C3.78372035 6.82142047 3.78372035 6.82142047 5 9 C4.01 9 3.02 9 2 9 C2 10.32 2 11.64 2 13 C1.34 13 0.68 13 0 13 C0 12.01 0 11.02 0 10 C-0.66 9.67 -1.32 9.34 -2 9 C-2.25 3.375 -2.25 3.375 0 0 Z " fill="#7AABD5" transform="translate(130,132)"/>
<path d="M0 0 C1.4540625 0.0309375 1.4540625 0.0309375 2.9375 0.0625 C3.5975 1.7125 4.2575 3.3625 4.9375 5.0625 C3.125 5.6875 3.125 5.6875 0.9375 6.0625 C-0.0525 5.4025 -1.0425 4.7425 -2.0625 4.0625 C-2.3925 6.3725 -2.7225 8.6825 -3.0625 11.0625 C-3.3925 11.0625 -3.7225 11.0625 -4.0625 11.0625 C-4.08938151 9.41675434 -4.10884123 7.77088587 -4.125 6.125 C-4.13660156 5.20847656 -4.14820312 4.29195312 -4.16015625 3.34765625 C-4.00919455 -0.18484756 -3.60673121 0.07360676 0 0 Z " fill="#7BB2D4" transform="translate(99.0625,127.9375)"/>
<path d="M0 0 C3.63 0 7.26 0 11 0 C11 1.32 11 2.64 11 4 C10.01 3.67 9.02 3.34 8 3 C8 2.34 8 1.68 8 1 C6.02 1.33 4.04 1.66 2 2 C1.84126912 10.54824466 1.84126912 10.54824466 3 19 C2.01 18.67 1.02 18.34 0 18 C0 12.06 0 6.12 0 0 Z " fill="#8FB2CA" transform="translate(94,127)"/>
<path d="M0 0 C1.08667969 0.20367187 2.17335937 0.40734375 3.29296875 0.6171875 C4.54013672 0.86855469 4.54013672 0.86855469 5.8125 1.125 C4.4925 2.445 3.1725 3.765 1.8125 5.125 C0.141875 4.5990625 0.141875 4.5990625 -1.5625 4.0625 C-4.99014476 2.75260669 -4.99014476 2.75260669 -7.1875 4.125 C-7.1875 3.465 -7.1875 2.805 -7.1875 2.125 C-7.8475 1.795 -8.5075 1.465 -9.1875 1.125 C-5.43214902 -1.37856732 -4.31860586 -0.8358592 0 0 Z " fill="#7DABCA" transform="translate(142.1875,43.875)"/>
<path d="M0 0 C-0.66 0 -1.32 0 -2 0 C-1.38722388 2.96175123 -0.74627478 4.38058783 1 7 C-1.375 7.625 -1.375 7.625 -4 8 C-4.66 7.34 -5.32 6.68 -6 6 C-6.66 6 -7.32 6 -8 6 C-7.49396008 3.83125748 -7.00016187 2.00032373 -6 0 C-3 -1 -3 -1 0 0 Z " fill="#7EB4D7" transform="translate(156,16)"/>
<path d="M0 0 C3.12290635 0.48578543 5.99580359 0.9986012 9 2 C9.99 1.34 10.98 0.68 12 0 C12 0.66 12 1.32 12 2 C12.99 2.33 13.98 2.66 15 3 C14.67 3.66 14.34 4.32 14 5 C14.33 5.99 14.66 6.98 15 8 C11.45756548 6.63408831 8.07372071 5.09068516 4.6875 3.375 C3.80449219 2.92898437 2.92148438 2.48296875 2.01171875 2.0234375 C1.34785156 1.68570313 0.68398437 1.34796875 0 1 C0 0.67 0 0.34 0 0 Z " fill="#81ADC9" transform="translate(105,82)"/>
<path d="M0 0 C8.38506465 -0.16125124 13.99905965 4.54914585 20 10 C20 10.66 20 11.32 20 12 C16.625 12.125 16.625 12.125 13 12 C12.34 11.34 11.68 10.68 11 10 C12.32 9.67 13.64 9.34 15 9 C14.34 9 13.68 9 13 9 C12.29875 8.236875 11.5975 7.47375 10.875 6.6875 C7.34895891 3.39141811 4.55602238 2.46719365 0 1 C0 0.67 0 0.34 0 0 Z " fill="#7DA5BE" transform="translate(68,46)"/>
<path d="M0 0 C0.33 0.99 0.66 1.98 1 3 C2.65 2.67 4.3 2.34 6 2 C6 2.66 6 3.32 6 4 C6.99 4.66 7.98 5.32 9 6 C6.24921116 6.91692961 4.64051087 7.10886083 1.8125 7.0625 C-0.0746875 7.0315625 -0.0746875 7.0315625 -2 7 C-2 3 -2 3 0 0 Z " fill="#7DADCC" transform="translate(117,139)"/>
<path d="M0 0 C1.98 0 3.96 0 6 0 C6.33 1.65 6.66 3.3 7 5 C6.34 5 5.68 5 5 5 C4.67 5.66 4.34 6.32 4 7 C1.525 6.01 1.525 6.01 -1 5 C-1.33 5.66 -1.66 6.32 -2 7 C-1.42415568 4.61435923 -0.77772405 2.33317216 0 0 Z " fill="#7FB8DB" transform="translate(138,129)"/>
<path d="M0 0 C0.66 0 1.32 0 2 0 C1.98839844 0.69867188 1.97679687 1.39734375 1.96484375 2.1171875 C1.95582031 3.02726563 1.94679687 3.93734375 1.9375 4.875 C1.92589844 5.77992188 1.91429687 6.68484375 1.90234375 7.6171875 C1.83750743 10.0168585 1.83750743 10.0168585 3 12 C0.69 12.33 -1.62 12.66 -4 13 C-4.66 11.68 -5.32 10.36 -6 9 C-4.7934375 8.7834375 -4.7934375 8.7834375 -3.5625 8.5625 C-1.07896294 8.25864751 -1.07896294 8.25864751 0 7 C0.04092937 4.66702567 0.04241723 2.33294775 0 0 Z " fill="#81A9C6" transform="translate(163,132)"/>
<path d="M0 0 C-0.33 0.66 -0.66 1.32 -1 2 C-3.75111869 2.85580402 -6.5291825 3.47309622 -9.3359375 4.12109375 C-12.05079642 5.01675835 -13.21444408 5.81967832 -15 8 C-14.875 6.25 -14.875 6.25 -14 4 C-9.27980929 0.32874056 -5.84368085 -1.87832599 0 0 Z " fill="#8BAEC8" transform="translate(69,46)"/>
<path d="M0 0 C0.33 0 0.66 0 1 0 C1 4.62 1 9.24 1 14 C-0.32 12.68 -1.64 11.36 -3 10 C-2.75 7.25 -2.75 7.25 -2 5 C-2.66 4.67 -3.32 4.34 -4 4 C-3.01 3.34 -2.02 2.68 -1 2 C-0.67 1.34 -0.34 0.68 0 0 Z " fill="#9CB2C3" transform="translate(151,129)"/>
<path d="M0 0 C-2.14117647 6.09411765 -2.14117647 6.09411765 -5 8 C-7.67992702 8.54659898 -10.26328507 8.7756791 -13 9 C-11.948125 8.1646875 -11.948125 8.1646875 -10.875 7.3125 C-9.3687192 6.10092631 -7.86574426 4.88412646 -6.40234375 3.62109375 C-2.20352564 0 -2.20352564 0 0 0 Z " fill="#7CA6C6" transform="translate(164,20)"/>
<path d="M0 0 C0 3 0 3 -1.35546875 4.53515625 C-4.75531914 7.3695731 -7.68736476 9.69314084 -12 11 C-11.67 10.01 -11.34 9.02 -11 8 C-10.01 8 -9.02 8 -8 8 C-7.67 7.01 -7.34 6.02 -7 5 C-6.34 5 -5.68 5 -5 5 C-5.66 4.34 -6.32 3.68 -7 3 C-4.69 2.01 -2.38 1.02 0 0 Z " fill="#76A5C0" transform="translate(146,50)"/>
<path d="M0 0 C0.66 0.99 1.32 1.98 2 3 C3.93398926 3.50394656 3.93398926 3.50394656 6.0625 3.5625 C7.361875 3.706875 8.66125 3.85125 10 4 C10.33 4.66 10.66 5.32 11 6 C9.72125 5.95875 8.4425 5.9175 7.125 5.875 C4.98128508 5.75787127 4.98128508 5.75787127 3 6 C2.34 6.66 1.68 7.32 1 8 C-2.81538462 5.53846154 -2.81538462 5.53846154 -3.75 2.8125 C-3.8325 2.214375 -3.915 1.61625 -4 1 C-1 2 -1 2 0 3 C0 2.01 0 1.02 0 0 Z " fill="#79A7CA" transform="translate(65,49)"/>
<path d="M0 0 C2.75 -0.25 2.75 -0.25 6 0 C8.375 2 8.375 2 10 4 C9.67 4.66 9.34 5.32 9 6 C7.35 5.67 5.7 5.34 4 5 C3.896875 4.360625 3.79375 3.72125 3.6875 3.0625 C3.460625 2.381875 3.23375 1.70125 3 1 C2.01 0.67 1.02 0.34 0 0 Z " fill="#8BB0C7" transform="translate(174,127)"/>
<path d="M0 0 C4.62 0 9.24 0 14 0 C14 0.33 14 0.66 14 1 C9.545 1.495 9.545 1.495 5 2 C4.67 2.99 4.34 3.98 4 5 C2.68 4.67 1.36 4.34 0 4 C0 2.68 0 1.36 0 0 Z " fill="#89ACC1" transform="translate(52,127)"/>
<path d="M0 0 C0.66 0 1.32 0 2 0 C2 0.66 2 1.32 2 2 C2.763125 2.12375 3.52625 2.2475 4.3125 2.375 C7 3 7 3 10 5 C9.34 5 8.68 5 8 5 C7.34 6.32 6.68 7.64 6 9 C4.99712471 7.68969568 3.99777175 6.37669473 3 5.0625 C2.443125 4.33160156 1.88625 3.60070312 1.3125 2.84765625 C0 1 0 1 0 0 Z " fill="#87AEC9" transform="translate(66,82)"/>
<path d="M0 0 C0.99 0.33 1.98 0.66 3 1 C2.8125 3.375 2.8125 3.375 2 6 C-0.5625 7.3125 -0.5625 7.3125 -3 8 C-3.33 7.01 -3.66 6.02 -4 5 C-3.34 5 -2.68 5 -2 5 C-1.34 3.35 -0.68 1.7 0 0 Z " fill="#6EABD4" transform="translate(150,32)"/>
<path d="M0 0 C0 0.99 0 1.98 0 3 C-1.57725347 3.70133599 -3.16211333 4.385583 -4.75 5.0625 C-5.63171875 5.44535156 -6.5134375 5.82820313 -7.421875 6.22265625 C-10.15256309 7.04600008 -11.36901347 6.9773992 -14 6 C-12.04414675 4.99515796 -10.08523763 3.99626195 -8.125 3 C-6.48917969 2.1646875 -6.48917969 2.1646875 -4.8203125 1.3125 C-2 0 -2 0 0 0 Z " fill="#81ABC4" transform="translate(136,26)"/>
<path d="M0 0 C0.99 0 1.98 0 3 0 C3.99 1.98 4.98 3.96 6 6 C4.1875 6.6875 4.1875 6.6875 2 7 C0.1875 5.8125 0.1875 5.8125 -1 4 C-0.6875 1.8125 -0.6875 1.8125 0 0 Z " fill="#84AEC6" transform="translate(145,139)"/>
<path d="M0 0 C3 0 3 0 4.421875 1.390625 C4.86015625 2.00421875 5.2984375 2.6178125 5.75 3.25 C6.19859375 3.85328125 6.6471875 4.4565625 7.109375 5.078125 C8.21943692 7.47352178 7.88257281 8.56754322 7 11 C6.401875 10.05125 5.80375 9.1025 5.1875 8.125 C3.18437474 4.86035803 3.18437474 4.86035803 0 3 C0 2.01 0 1.02 0 0 Z " fill="#8DAEC1" transform="translate(163,123)"/>
<path d="M0 0 C0.99 0.33 1.98 0.66 3 1 C-1.625 6.875 -1.625 6.875 -5 8 C-4.66275164 4.88045262 -4.3790035 3.3790035 -2.125 1.125 C-1.42375 0.75375 -0.7225 0.3825 0 0 Z " fill="#7BA8BB" transform="translate(153,37)"/>
<path d="M0 0 C1.98 0 3.96 0 6 0 C5.67 1.32 5.34 2.64 5 4 C2.69 4 0.38 4 -2 4 C-1.34 2.68 -0.68 1.36 0 0 Z " fill="#77A7CA" transform="translate(99,142)"/>
<path d="M0 0 C3 3.875 3 3.875 3 5 C1.02 5 -0.96 5 -3 5 C-3.33 3.68 -3.66 2.36 -4 1 C-2.68 0.67 -1.36 0.34 0 0 Z " fill="#89B9D3" transform="translate(102,135)"/>
<path d="M0 0 C2 2 2 2 3 4 C3.66 3.67 4.32 3.34 5 3 C5 3.99 5 4.98 5 6 C3.34385343 6.38218767 1.67542976 6.71395102 0 7 C-1 6 -1 6 -1.125 3.5 C-1 1 -1 1 0 0 Z " fill="#81A7C4" transform="translate(138,139)"/>
<path d="M0 0 C1.8125 0.1875 1.8125 0.1875 4 1 C5.75 3.5625 5.75 3.5625 7 6 C4.03 5.505 4.03 5.505 1 5 C0.67 3.35 0.34 1.7 0 0 Z " fill="#8AB1D8" transform="translate(143,101)"/>
<path d="M0 0 C0.66 0 1.32 0 2 0 C2.598125 0.639375 3.19625 1.27875 3.8125 1.9375 C6.26700181 4.25174456 7.70523261 4.63391473 11 5 C10.01 6.485 10.01 6.485 9 8 C5.08158173 6.69386058 2.67359191 5.16870152 0 2 C0 1.34 0 0.68 0 0 Z " fill="#80AAC3" transform="translate(78,65)"/>
<path d="M0 0 C0.33 0 0.66 0 1 0 C1 4.95 1 9.9 1 15 C-0.32 15.33 -1.64 15.66 -3 16 C-2.68289062 15.46890625 -2.36578125 14.9378125 -2.0390625 14.390625 C-0.7629651 11.45464152 -0.58292979 8.93825671 -0.375 5.75 C-0.30023438 4.67234375 -0.22546875 3.5946875 -0.1484375 2.484375 C-0.09945312 1.66453125 -0.05046875 0.8446875 0 0 Z " fill="#76A0BB" transform="translate(50,130)"/>
<path d="M0 0 C0.99 0.33 1.98 0.66 3 1 C3.3367697 5.93928888 3.16130459 6.78492722 0 11 C0 7.37 0 3.74 0 0 Z " fill="#6EACBE" transform="translate(113,131)"/>
<path d="M0 0 C3.63 0 7.26 0 11 0 C11 1.32 11 2.64 11 4 C10.01 3.67 9.02 3.34 8 3 C8 2.34 8 1.68 8 1 C5.36 1.66 2.72 2.32 0 3 C0 2.01 0 1.02 0 0 Z " fill="#87A8BF" transform="translate(94,127)"/>
<path d="M0 0 C1 3 1 3 0 6 C-1.32 6 -2.64 6 -4 6 C-3.67 4.35 -3.34 2.7 -3 1 C-2.01 0.67 -1.02 0.34 0 0 Z " fill="#77B2D1" transform="translate(77,86)"/>
<path d="M0 0 C1 3 1 3 1 5 C-1.375 6.6875 -1.375 6.6875 -4 8 C-4.66 7.67 -5.32 7.34 -6 7 C-4.02 4.69 -2.04 2.38 0 0 Z " fill="#80ADC8" transform="translate(98,45)"/>
<path d="M0 0 C0.66 0.33 1.32 0.66 2 1 C1.01 1.33 0.02 1.66 -1 2 C-0.67 3.32 -0.34 4.64 0 6 C-2.64 5.67 -5.28 5.34 -8 5 C-5.45378681 2.99940392 -3.01962385 1.20784954 0 0 Z " fill="#82ABC5" transform="translate(120,33)"/>
<path d="M0 0 C1.9375 0.3125 1.9375 0.3125 4 1 C4.33 1.99 4.66 2.98 5 4 C2.625 4.625 2.625 4.625 0 5 C-0.66 4.34 -1.32 3.68 -2 3 C-1.34 2.01 -0.68 1.02 0 0 Z " fill="#6BB5D7" transform="translate(152,19)"/>
<path d="M0 0 C0.33 0.99 0.66 1.98 1 3 C0.34 3 -0.32 3 -1 3 C-1 4.32 -1 5.64 -1 7 C-2.32 6.34 -3.64 5.68 -5 5 C-4 2 -4 2 -1.9375 0.8125 C-1.298125 0.544375 -0.65875 0.27625 0 0 Z " fill="#7DB3D9" transform="translate(161,9)"/>
<path d="M0 0 C1.65 0 3.3 0 5 0 C5 1.32 5 2.64 5 4 C3.35 4 1.7 4 0 4 C0 2.68 0 1.36 0 0 Z " fill="#7EA7C1" transform="translate(87,142)"/>
<path d="M0 0 C-1.75 5.75 -1.75 5.75 -4 8 C-4 7.01 -4 6.02 -4 5 C-4.66 4.67 -5.32 4.34 -6 4 C-2.25 0 -2.25 0 0 0 Z " fill="#81A2BB" transform="translate(169,0)"/>
<path d="M0 0 C1.32 0 2.64 0 4 0 C4 1.98 4 3.96 4 6 C3.01 5.67 2.02 5.34 1 5 C0.67 3.35 0.34 1.7 0 0 Z " fill="#7AB2DA" transform="translate(71,129)"/>
<path d="M0 0 C0 0.99 0 1.98 0 3 C-3.33333333 6 -3.33333333 6 -6 6 C-6.33 6.66 -6.66 7.32 -7 8 C-7 7.01 -7 6.02 -7 5 C-5.46875 3.61328125 -5.46875 3.61328125 -3.5 2.3125 C-2.8503125 1.87550781 -2.200625 1.43851563 -1.53125 0.98828125 C-1.0259375 0.66214844 -0.520625 0.33601563 0 0 Z " fill="#85ABC2" transform="translate(149,16)"/>
<path d="M0 0 C0.33 0.66 0.66 1.32 1 2 C2.485 2.4640625 2.485 2.4640625 4 2.9375 C4.99 3.288125 5.98 3.63875 7 4 C7.33 4.99 7.66 5.98 8 7 C4.06326356 5.68775452 1.77280706 4.08089673 -1 1 C-0.67 0.67 -0.34 0.34 0 0 Z " fill="#7BA7BF" transform="translate(126,92)"/>
<path d="" fill="#AAAAAA" transform="translate(0,0)"/>
<path d="M0 0 C2 1 2 1 2 1 Z " fill="#3FBFBF" transform="translate(127,97)"/>
</svg>
